Coordinates
version=1
nRows=14
nColumns=24
inDegrees=yes

Units are S.I. units (second, meters, Newtons, ...)
Angles are in degrees.

endheader
time	pelvis_tilt	pelvis_list	pelvis_rotation	pelvis_tx	pelvis_ty	pelvis_tz	hip_flexion_r	hip_adduction_r	hip_rotation_r	knee_angle_r	ankle_angle_r	subtalar_angle_r	mtp_angle_r	hip_flexion_l	hip_adduction_l	hip_rotation_l	knee_angle_l	ankle_angle_l	subtalar_angle_l	mtp_angle_l	lumbar_extension	lumbar_bending	lumbar_rotation
      3.06500000	     -9.51013017	      6.65014716	    356.92262798	      0.61318030	      1.36950060	     -1.03363619	      7.18346392	     -5.92778091	      5.71344601	    -37.64198124	     -1.26291494	      0.16144218	     25.06870999	     26.12805462	      8.66844376	     -1.76041191	     -8.23225877	    -12.24406400	     -7.04153611	     29.53749423	     -6.18490602	     -3.68874033	     12.03030856
      3.07000000	     -9.40203085	      6.76176302	    356.94972680	      0.61849188	      1.37005497	     -1.03456992	      7.84463663	     -6.16611727	      5.56953088	    -39.20138781	     -2.30255540	      0.43578023	     25.97076921	     25.93936553	      8.89004826	     -1.66531190	     -8.70451180	    -11.86738902	     -6.99776098	     28.95273928	     -6.26498816	     -3.81444980	     11.92596220
      3.07500000	     -9.28228366	      6.88156506	    356.98301799	      0.62380887	      1.37059657	     -1.03550761	      8.49457144	     -6.41572556	      5.44489826	    -40.72227393	     -3.21101177	      0.74791591	     26.73522264	     25.71425816	      9.12600960	     -1.59612213	     -9.13026366	    -11.46579115	     -6.91012593	     28.39900545	     -6.34603182	     -3.95405247	     11.82594646
      3.08000000	     -9.15604244	      6.97779826	    357.01073226	      0.62908575	      1.37114033	     -1.03641367	      9.13752576	     -6.62638184	      5.36807669	    -42.19025353	     -4.05076253	      0.99880074	     27.40870613	     25.46422681	      9.33453329	     -1.57565619	     -9.52230576	    -11.05021674	     -6.75377989	     27.81502923	     -6.43746136	     -4.06211569	     11.69955389
      3.08500000	     -9.02212858	      7.05768692	    357.04029228	      0.63433639	      1.37168318	     -1.03731460	      9.76571645	     -6.81270978	      5.31960991	    -43.60162774	     -4.74490971	      1.27845522	     27.95816835	     25.18748629	      9.52735209	     -1.58671035	     -9.87857395	    -10.62375876	     -6.54602920	     27.26370930	     -6.53015169	     -4.15279736	     11.58268101
      3.09000000	     -8.91932490	      7.11193962	    357.07288978	      0.63955843	      1.37219562	     -1.03819063	     10.42074841	     -6.95610506	      5.30271224	    -44.95538057	     -5.29470194	      1.54910454	     28.39802742	     24.93282680	      9.68774263	     -1.64252278	    -10.21268940	    -10.18424446	     -6.27134968	     26.75605036	     -6.58397311	     -4.21689181	     11.45351873
      3.09500000	     -8.80252251	      7.13078850	    357.09055205	      0.64472241	      1.37272538	     -1.03903830	     11.05121451	     -7.04360510	      5.33160691	    -46.23699647	     -5.71480907	      1.78846854	     28.79620918	     24.65490147	      9.80424971	     -1.74622238	    -10.53547375	     -9.70070366	     -5.93000124	     26.16021844	     -6.65771814	     -4.23669550	     11.33302279
      3.10000000	     -8.70643178	      7.14807835	    357.12611808	      0.64988815	      1.37321542	     -1.03987321	     11.68917651	     -7.12616468	      5.35416289	    -47.45771848	     -5.93828234	      2.10262044	     29.09155706	     24.38633406	      9.91742841	     -1.88229424	    -10.82762121	     -9.24332742	     -5.52354218	     25.77358941	     -6.69439353	     -4.26397676	     11.20065106
      3.10500000	     -8.60087355	      7.12494363	    357.13238819	      0.65496901	      1.37373974	     -1.04064264	     12.31090380	     -7.13754899	      5.42972046	    -48.60117243	     -6.08091123	      2.29806083	     29.38059765	     24.11252741	      9.97143213	     -2.10191997	    -11.13742685	     -8.70747591	     -5.00486692	     25.11698042	     -6.75090101	     -4.24365496	     11.07496461
      3.11000000	     -8.54083044	      7.07928943	    357.16479055	      0.66002742	      1.37419227	     -1.04142334	     12.96551213	     -7.12301147	      5.48593622	    -49.68370356	     -6.02568076	      2.60405130	     29.61122270	     23.89263406	     10.00043972	     -2.32641142	    -11.44888748	     -8.19782215	     -4.45976521	     24.84072142	     -6.75158975	     -4.20315685	     10.94081991
      3.11500000	     -8.50606240	      6.98143933	    357.16811885	      0.66499036	      1.37465166	     -1.04212859	     13.64247131	     -7.01933475	      5.58817170	    -50.69139646	     -5.88709934	      2.78618227	     29.82521036	     23.72084337	      9.95088158	     -2.63789512	    -11.81087968	     -7.59502161	     -3.75938511	     24.26112595	     -6.73240585	     -4.10066173	     10.84402738
      3.12000000	     -8.46104412	      6.89933571	    357.17760381	      0.66994020	      1.37509785	     -1.04279551	     14.29914328	     -6.93331612	      5.67718519	    -51.63630622	     -5.64876423	      3.02051799	     30.02323920	     23.53490758	      9.91326444	     -2.95689045	    -12.16024495	     -7.01096673	     -3.05805756	     23.87953823	     -6.72109145	     -4.02563028	     10.69992539
      3.12500000	     -8.45668791	      6.77743043	    357.17312923	      0.67479739	      1.37550415	     -1.04340140	     14.99694791	     -6.78067056	      5.78404151	    -52.51724136	     -5.32198215	      3.18166612	     30.20223807	     23.42032878	      9.81301695	     -3.33378162	    -12.56418456	     -6.38301830	     -2.25691599	     23.40871079	     -6.67463169	     -3.90710690	     10.57952716
      3.13000000	     -8.47343114	      6.61108361	    357.15140065	      0.67958940	      1.37592090	     -1.04396959	     15.70795526	     -6.56457017	      5.89462918	    -53.31828222	     -4.97835377	      3.27189158	     30.34312317	     23.35049493	      9.65039897	     -3.75499499	    -13.02306992	     -5.68411020	     -1.39004425	     22.66985931	     -6.60379345	     -3.73692648	     10.50574680
